<svg xmlns="http://www.w3.org/2000/svg" xmlns:xlink="http://www.w3.org/1999/xlink" id="jobber-logo-light" x="0" y="0" version="1.1" viewBox="0 0 154.8 36.3" xml:space="preserve" style="enable-background:new 0 0 154.8 36.3"><style type="text/css">.st0{fill:#fff}</style><path d="M1.7,4.7h3l10.4,9.5l10.4-9.5h3v25.6h-6.8V17.2l-6.7,6.1l-6.7-6.1v13.1H1.7V4.7z" class="st0"/><path d="M32.7,22.5c0-4.5,3.6-8.2,8.2-8.2c4.6,0,8.1,3.6,8.1,8.2c0,0.5,0,1.1-0.1,1.6H37.6c0.6,1.2,1.9,2.1,3.4,2.1	c0.6,0,1.3-0.2,1.8-0.5L46,29c-1.4,1-3.2,1.7-5,1.7C36.4,30.7,32.7,27,32.7,22.5z M44.2,20.9c-0.5-1.3-1.8-2.1-3.3-2.1	c-1.5,0-2.8,0.9-3.4,2.1H44.2z" class="st0"/><path d="M51.5,22.4c0-4.6,3.7-8.1,8.2-8.1c1.4,0,2.9,0.4,4.1,1.2V4.7h5.5v25.6h-5.5v-1c-1.2,0.7-2.4,1.3-4.1,1.3	C55.5,30.7,51.5,27.4,51.5,22.4z M62.7,22.5c0-1.6-1.3-3-3.1-3c-1.7,0-3,1.4-3,3c0,1.7,1.3,3.1,3,3.1C61.4,25.5,62.7,24.1,62.7,22.5	z" class="st0"/><path d="M73.9,14.6h5.5v15.7h-5.5V14.6z M74.3,10.5c0-1.4,1.1-2.5,2.5-2.5c1.4,0,2.5,1.2,2.5,2.5c0,1.4-1.1,2.5-2.5,2.5	C75.4,13,74.3,11.9,74.3,10.5z" class="st0"/><path d="M84.7,4.7h10.8c5.2,0,9.4,4.2,9.4,9.4c0,5.1-4.2,9.4-9.3,9.4h-4.2v6.8h-6.7V4.7z M95.6,17.7	c2,0,3.7-1.6,3.7-3.6s-1.6-3.7-3.7-3.7h-4.2v7.3H95.6z" class="st0"/><path d="M106.8,22.5c0-4.5,3.7-8.2,8.2-8.2c4.5,0,8.2,3.7,8.2,8.2c0,4.5-3.7,8.2-8.2,8.2	C110.4,30.7,106.8,27,106.8,22.5z M118,22.5c0-1.6-1.3-3-3-3c-1.8,0-3.1,1.4-3.1,3c0,1.7,1.3,3.1,3.1,3.1	C116.7,25.5,118,24.1,118,22.5z" class="st0"/><path d="M127.1,14.6h5.5v0.2c0.7-0.3,1.8-0.6,3.1-0.6c2.3,0,4.3,1,5.7,2.5l-3.6,3.5c-0.7-0.6-1.5-0.9-2.3-0.9	c-1.6,0-2.9,1.3-2.9,3v7.9h-5.5V14.6z" class="st0"/><path d="M153.3,18.8h-2.7v11.6h-5.5V18.8h-2.7v-4.1h2.7V9.9h5.5v4.7h2.7V18.8z" class="st0"/></svg>