<?xml version="1.0" encoding="utf-8"?>
<!-- Generator: Adobe Illustrator 23.0.6, SVG Export Plug-In . SVG Version: 6.00 Build 0)  -->
<svg version="1.1" id="Layer_1" xmlns="http://www.w3.org/2000/svg" xmlns:xlink="http://www.w3.org/1999/xlink" x="0px" y="0px"
	 viewBox="0 0 154.8 36.3" style="enable-background:new 0 0 154.8 36.3;" xml:space="preserve">
<path d="M1.6,5.6h3L15.1,15l10.4-9.5h3v25.6h-6.8V18l-6.7,6.1L8.4,18v13.1H1.6V5.6z"/>
<path d="M32.6,23.3c0-4.5,3.6-8.2,8.2-8.2c4.6,0,8.1,3.6,8.1,8.2c0,0.5,0,1.1-0.1,1.6H37.4c0.6,1.2,1.9,2.1,3.4,2.1
	c0.6,0,1.3-0.2,1.8-0.5l3.2,3.2c-1.4,1-3.2,1.7-5,1.7C36.3,31.5,32.6,27.9,32.6,23.3z M44.1,21.7c-0.5-1.3-1.8-2.1-3.3-2.1
	c-1.5,0-2.8,0.9-3.4,2.1H44.1z"/>
<path d="M51.3,23.2c0-4.6,3.7-8.1,8.2-8.1c1.4,0,2.9,0.4,4.1,1.2V5.5H69v25.6h-5.5v-1c-1.2,0.7-2.4,1.3-4.1,1.3
	C55.3,31.5,51.3,28.2,51.3,23.2z M62.6,23.3c0-1.6-1.3-3-3.1-3c-1.7,0-3,1.4-3,3c0,1.7,1.3,3.1,3,3.1C61.3,26.4,62.6,25,62.6,23.3z"
	/>
<path d="M73.8,15.4h5.5v15.7h-5.5V15.4z M74.2,11.3c0-1.4,1.1-2.5,2.5-2.5c1.4,0,2.5,1.2,2.5,2.5c0,1.4-1.1,2.5-2.5,2.5
	C75.3,13.8,74.2,12.7,74.2,11.3z"/>
<path d="M84.6,5.6h10.8c5.2,0,9.4,4.2,9.4,9.4c0,5.1-4.2,9.4-9.3,9.4h-4.2v6.8h-6.7V5.6z M95.4,18.6c2,0,3.7-1.6,3.7-3.6
	s-1.6-3.7-3.7-3.7h-4.2v7.3H95.4z"/>
<path d="M106.6,23.3c0-4.5,3.7-8.2,8.2-8.2c4.5,0,8.2,3.7,8.2,8.2c0,4.5-3.7,8.2-8.2,8.2C110.3,31.5,106.6,27.8,106.6,23.3z
	 M117.9,23.3c0-1.6-1.3-3-3-3c-1.8,0-3.1,1.4-3.1,3c0,1.7,1.3,3.1,3.1,3.1C116.5,26.4,117.9,25,117.9,23.3z"/>
<path d="M127,15.4h5.5v0.2c0.7-0.3,1.8-0.6,3.1-0.6c2.3,0,4.3,1,5.7,2.5l-3.6,3.5c-0.7-0.6-1.5-0.9-2.3-0.9c-1.6,0-2.9,1.3-2.9,3
	v7.9H127V15.4z"/>
<path d="M153.1,19.6h-2.7v11.6H145V19.6h-2.7v-4.1h2.7v-4.7h5.5v4.7h2.7V19.6z"/>
</svg>
